<svg width="31" height="30" viewBox="0 0 31 30" fill="none" xmlns="http://www.w3.org/2000/svg">
<path d="M18.7592 5.625C19.2774 5.625 19.6967 5.2057 19.6967 4.6875V0.9375C19.6967 0.419297 19.2748 0 18.7592 0C18.2436 0 17.8217 0.419297 17.8217 0.9375V4.6875C17.8217 5.20547 18.2436 5.625 18.7592 5.625ZM22.474 5.625C22.7743 5.625 23.0693 5.48127 23.2504 5.21391L25.1582 2.40141C25.2668 2.24051 25.319 2.05775 25.319 1.87693C25.319 1.3527 24.8928 0.93709 24.3832 0.93709C24.083 0.93709 23.7873 1.08152 23.6057 1.34842L21.6979 4.16092C21.5893 4.32188 21.5365 4.50469 21.5365 4.68574C21.5365 5.20781 21.9643 5.625 22.474 5.625ZM22.5092 20.9473V11.3438C22.5092 10.9913 22.2354 9.36973 20.6342 9.36973C19.5977 9.36973 18.7551 10.2094 18.7551 11.192L18.7592 15.709L9.92324 6.87305C9.64785 6.59766 9.28457 6.46289 8.92715 6.46289C8.12383 6.46289 7.5209 7.11973 7.5209 7.86914C7.5209 8.22897 7.65824 8.58867 7.93287 8.86348L13.1653 14.0959C13.3334 14.2617 13.4213 14.4844 13.4213 14.707C13.4213 14.9297 13.3363 15.1523 13.1665 15.3223C12.9966 15.4921 12.7739 15.5771 12.5512 15.5771C12.3286 15.5771 12.1059 15.4921 11.936 15.3223L5.63131 9.01758C5.3541 8.74219 4.99434 8.60742 4.63457 8.60742C3.83125 8.60742 3.22832 9.26426 3.22832 10.0137C3.22832 10.3735 3.36566 10.7332 3.64029 11.008L9.94498 17.3127C10.1166 17.4844 10.1986 17.707 10.1986 17.877C10.1986 18.0996 10.1137 18.3223 9.94381 18.4922C9.77395 18.6621 9.55123 18.747 9.32857 18.747C9.10592 18.747 8.88326 18.6621 8.71334 18.4922L3.48262 13.3125C3.20781 13.0371 2.84805 12.8965 2.48828 12.8965C1.68496 12.8965 1.08203 13.5533 1.08203 14.3027C1.08203 14.6626 1.21938 15.0223 1.494 15.2971L6.72643 20.5295C6.89635 20.6994 6.98125 20.9221 6.98125 21.1447C6.98125 21.3674 6.89629 21.59 6.72643 21.76C6.55656 21.9298 6.33385 22.0148 6.11119 22.0148C5.88854 22.0148 5.66588 21.9298 5.49596 21.76L2.40977 18.6738C2.13496 18.3984 1.7752 18.2637 1.41543 18.2637C0.612109 18.2637 0.00976562 18.9234 0.00976562 19.6729C0.00976562 20.0327 0.146406 20.3895 0.421094 20.6643C6.60684 26.8477 8.87442 30 13.6205 30C18.6479 30 22.5092 25.834 22.5092 20.9473ZM14.265 5.21367C14.4467 5.48145 14.7396 5.625 15.0443 5.625C15.5577 5.625 15.9813 5.20799 15.9813 4.68574C15.9813 4.5048 15.9291 4.32217 15.8205 4.16127L13.9127 1.34877C13.7318 1.08164 13.433 0.936328 13.0814 0.936328C12.5738 0.936328 12.1451 1.35082 12.1451 1.87676C12.1451 2.05758 12.1973 2.24033 12.3059 2.40123L14.265 5.21367ZM28.1342 9.375C27.0977 9.375 26.2592 10.2146 26.2592 11.25V15.7113L24.3842 13.8363V20.9496C24.3842 26.458 20.6746 29.2406 19.7951 29.8676C20.2299 29.9355 20.6693 30 21.1205 30C26.1479 30 30.0092 25.834 30.0092 20.9473L30.0055 11.2441C30.0033 10.2129 29.1713 9.375 28.1342 9.375Z" fill="#525252"/>
</svg>
